<svg xmlns="http://www.w3.org/2000/svg" viewBox="0 0 409.1 288.06"><g id="Livello_2" data-name="Livello 2"><g id="Livello_1-2" data-name="Livello 1"><path d="M409.1,258.21c-.82,2.52-1.58,5.06-2.48,7.55-.68,1.87-1.85,2.11-3.28.66l-1.14-1.11q-59-59.22-118-118.39c-2.2-2.21-2.23-3.6,0-5.79,8.56-8.36,17-16.88,25.4-25.36Q355.22,70,400.79,24.16C405.63,19.3,406,19.4,408,26c.38,1.27.74,2.55,1.1,3.82Z"/><path d="M205,0q84,0,168,0A37.52,37.52,0,0,1,385.2,1.92c2.58.87,3.79,2.06,1.13,4.31-.4.34-.75.75-1.13,1.13L217,176.16c-8.28,8.31-16.31,8.36-24.52.13L24,7.2c-3.61-3.63-3.47-4.07,1.54-5.69A34.19,34.19,0,0,1,36.18,0Q120.6.06,205,0Z"/><path d="M204.41,288q-84,0-168,0A37.15,37.15,0,0,1,23.87,286c-2.76-1-3-2.27-.82-4.14.41-.35.76-.75,1.13-1.13l116-116.51c3.95-4,4-4,8,.06q14.66,14.68,29.32,29.38c15.65,15.58,38.47,15.68,54.22.14q15.35-15.14,30.41-30.55c2.28-2.33,3.71-2.47,6.09-.08Q327,222.37,385.91,281.42c2.86,2.87,2.66,3.58-1.3,4.9a35.16,35.16,0,0,1-11.36,1.74Q288.83,288,204.41,288Z"/><path d="M0,144Q0,90,0,35.89a35.25,35.25,0,0,1,2.57-13.2c.87-2.18,2-2.67,3.76-.81.73.78,1.51,1.5,2.26,2.26l115.7,116.19c3.68,3.7,3.68,3.7,0,7.41L8.29,264.22c-4.43,4.44-4.91,4.3-6.8-1.87A36.18,36.18,0,0,1,0,251.74Q.06,197.89,0,144Z"/></g></g></svg>