<svg xmlns="http://www.w3.org/2000/svg" viewBox="0 0 383.51 384"><g id="Livello_2" data-name="Livello 2"><g id="Livello_1-2" data-name="Livello 1"><path d="M111.53,0c4,2,6.25,5.41,7.89,9.54q23,57.8,46.08,115.52c3.64,9.12,1.24,14.81-7.84,18.48-15.26,6.15-30.52,12.34-45.85,18.33-3.2,1.25-4.45,2.47-4,6.4a120.93,120.93,0,0,0,89.92,104.57,155.31,155.31,0,0,0,19.86,3.45c2.79.35,3-1.68,3.7-3.31q8.37-20.85,16.66-41.75c.84-2.09,1.66-4.18,2.52-6.25,3.23-7.72,9.15-10.29,17-7.18q33.89,13.48,67.72,27.1,24,9.6,47.92,19.2c8.87,3.54,10.5,5.91,10.48,15.37-.14,49.64-39.72,95.71-88.74,103.3-2.2.34-4.39.82-6.58,1.23H256a15,15,0,0,0-2.17-.47,248.24,248.24,0,0,1-41.65-6.5q-85.54-20.61-143.84-86.67C33.81,251.19,12.42,205.64,3.45,154.18,1.91,145.33,1.2,136.39,0,127.5V95.25c.17-.72.39-1.44.5-2.17Q9,38.86,56.88,12.15C68.78,5.53,81.71,2.08,95.06,0Z"/></g></g></svg>